<svg xmlns="http://www.w3.org/2000/svg" version="1.1" viewBox="0 0 256 256">
    <rect width="256" height="256" fill="#231915" class="logo-frame"/>
    <path fill="#f98152" d="M106.39,158.46c-2.68,1.94-5.25,3.48-7.67,4.56c-5.18,2.32-10.98,3.49-17.26,3.49
	c-7.35,0-14.12-1.68-20.11-4.99c-5.97-3.3-10.64-7.89-13.9-13.65c-3.27-5.79-4.93-12.52-4.93-20.03c0-10.72,3.74-19.86,11.12-27.16
	c7.39-7.31,16.61-11.02,27.42-11.02c9,0,17.46,2.7,25.27,8.02c3.52-8.06,8.41-15.39,14.36-21.71c-3.19-2.13-6.56-4.01-10.1-5.61
	C101.28,66.13,91.47,64,81.42,64c-11.83,0-23.03,2.89-33.28,8.6c-10.27,5.71-18.28,13.39-23.81,22.8C18.8,104.82,16,115.72,16,127.8
	c0,18.67,6.15,34.2,18.27,46.17C46.39,185.93,62.14,192,81.09,192c10.25,0,19.52-1.71,27.55-5.09c3.9-1.64,7.93-3.93,12.08-6.84
	C114.79,173.78,109.92,166.48,106.39,158.46z" class="logo-letters"/>
    <path fill="#f98152" d="M238.87,116h-24.71H176v24h38.16c-5.09,16.23-20.25,28-38.16,28c-22.09,0-40-17.91-40-40
	c0-22.09,17.91-40,40-40c9.67,0,18.54,3.44,25.46,9.16l20.15-14.06C210,71.31,193.86,64,176,64c-35.35,0-64,28.65-64,64
	c0,35.35,28.65,64,64,64c31.25,0,57.26-22.39,62.87-52c0.74-3.88,1.13-7.9,1.13-12C240,123.9,239.61,119.88,238.87,116z" class="logo-letters"/>
</svg>
